<svg width="1577" height="1619" viewBox="0 0 1577 1619" fill="none" xmlns="http://www.w3.org/2000/svg">
<path d="M747.423 0.367429C660.756 8.10076 613.156 17.5674 544.756 40.6341C363.956 101.834 211.156 226.234 113.823 391.301C59.5561 483.301 25.9561 579.434 9.55611 688.901C1.28944 744.367 -1.51056 793.434 0.756108 845.434C4.75611 942.501 22.4894 1028.77 55.4228 1112.9C128.223 1298.63 264.089 1447.97 440.756 1536.37C575.156 1603.57 725.823 1630.37 872.756 1613.43C967.29 1602.63 1051.56 1577.83 1134.09 1536.77C1338.22 1435.17 1486.76 1253.3 1548.09 1029.7C1569.16 953.301 1579.29 859.567 1575.56 777.567C1569.56 647.034 1537.02 528.367 1476.36 414.901C1415.02 300.367 1333.56 208.901 1227.42 135.567C1119.16 60.6341 997.023 16.2341 860.756 2.10076C846.889 0.767429 759.023 -0.699238 747.423 0.367429ZM848.756 47.7008C972.89 57.3008 1101.42 102.767 1203.42 172.901C1311.82 247.434 1393.29 340.767 1452.76 458.367C1498.89 549.567 1525.16 646.234 1534.09 758.234C1535.96 781.034 1535.96 848.901 1534.09 874.234C1523.69 1014.9 1474.36 1151.43 1393.16 1264.63C1314.09 1374.63 1214.62 1457.17 1095.29 1511.97C989.556 1560.37 869.689 1583.97 757.823 1578.5C581.689 1569.83 413.689 1498.77 286.623 1379.43C191.823 1290.23 122.623 1181.43 81.0228 1056.23C64.3561 1006.1 52.2228 947.301 45.8228 886.234C43.4228 863.567 43.4228 764.634 45.8228 742.901C52.4894 681.301 61.9561 633.434 77.5561 581.701C107.289 483.301 155.023 394.501 221.556 313.567C287.423 233.301 380.489 160.634 472.089 117.967C593.289 61.3008 720.489 37.7008 848.756 47.7008Z" fill="#FF6B00"/>
<path d="M500.756 637.035C500.756 637.835 504.623 647.301 509.289 657.968C513.956 668.768 519.956 682.635 522.489 688.901C528.756 703.701 623.956 941.701 637.423 976.235C643.289 990.901 648.489 1003.57 649.023 1004.5C649.956 1005.57 661.689 1005.97 692.223 1005.83C728.889 1005.7 734.356 1005.43 735.423 1003.7C736.889 1000.9 791.823 861.435 800.889 837.301C804.889 826.768 808.356 818.235 808.756 818.235C809.423 818.235 817.556 839.568 858.756 949.568C869.423 978.101 878.623 1002.5 879.289 1003.57C880.223 1005.3 886.489 1005.43 923.556 1005.17L966.756 1004.77L985.823 957.835C1005.82 908.368 1035.29 836.901 1052.76 795.568C1058.49 781.968 1070.36 753.835 1079.16 732.901C1095.96 693.035 1109.69 661.168 1116.62 645.835C1118.89 640.768 1120.76 636.368 1120.76 636.101C1120.76 635.835 1094.76 635.701 1063.16 635.835L1005.42 636.235L994.356 663.568C988.223 678.635 976.623 707.035 968.623 726.901C960.489 746.635 946.889 780.101 938.356 801.168C929.956 822.368 922.623 839.568 922.089 839.568C921.689 839.568 919.556 834.901 917.289 829.168C915.023 823.568 900.223 787.968 884.489 750.235C868.756 712.501 854.356 677.835 852.623 673.168L849.423 664.901L810.356 665.168L771.289 665.568L761.556 688.901C752.089 711.568 747.956 721.301 714.756 800.235C706.089 820.768 698.623 838.101 698.089 838.635C697.556 839.168 693.556 829.835 689.023 817.968C684.489 805.968 667.023 760.235 650.223 716.235L619.689 636.235L560.223 635.835C518.089 635.701 500.756 635.968 500.756 637.035Z" fill="#F5F0E8"/>
<path d="M1141.42 639.834C1140.49 642.234 1132.09 661.834 1122.89 683.301C1113.69 704.768 1106.09 722.634 1106.09 722.901C1106.09 723.301 1157.82 723.568 1221.16 723.568C1350.89 723.568 1342.09 722.901 1351.69 734.101C1365.29 749.968 1360.09 774.101 1340.76 784.368C1336.49 786.634 1331.69 786.901 1290.89 787.568L1245.69 788.234L1281.96 823.568C1323.16 863.568 1318.62 861.034 1340.76 858.234C1362.62 855.434 1383.02 847.568 1399.56 835.434C1434.22 809.834 1450.89 768.101 1442.36 727.568C1432.36 679.301 1396.62 644.234 1350.09 636.901C1344.76 636.101 1303.42 635.568 1242.36 635.568H1143.29L1141.42 639.834Z" fill="#F5F0E8"/>
<path d="M154.089 822.235V1006.23H300.756C463.423 1006.23 456.889 1006.5 479.423 997.435C514.489 983.301 541.423 951.301 548.223 915.835C556.356 873.035 536.489 830.901 499.023 811.568C494.089 809.035 490.089 806.501 490.089 805.968C490.089 805.435 492.223 802.101 495.023 798.635C512.223 776.101 517.823 744.101 509.556 716.235C500.489 685.968 480.889 662.768 453.289 649.435C430.089 638.368 440.889 639.035 289.156 638.635L154.089 638.101V822.235ZM402.489 723.435C407.156 725.301 415.156 732.635 417.689 737.435C419.023 739.835 419.956 745.035 419.956 749.701C420.089 760.635 415.023 769.301 405.423 774.101L398.889 777.568L321.156 777.968L243.423 778.368V750.235V722.235H321.289C366.356 722.235 400.623 722.768 402.489 723.435ZM435.023 863.568C456.623 875.968 455.689 906.101 433.423 917.568L425.556 921.568L336.889 921.835C288.089 921.968 247.023 921.701 245.823 921.435C243.556 920.768 243.423 918.101 243.423 890.101V859.568H335.823H428.089L435.023 863.568Z" fill="#F5F0E8"/>
<path d="M1078.89 791.834C1077.96 794.234 1072.76 806.101 1067.42 818.234C1062.09 830.368 1056.09 844.234 1053.96 849.168L1050.22 858.234H1106.76H1163.16L1169.02 864.768C1172.09 868.368 1187.16 884.768 1202.22 901.034C1230.09 931.434 1253.69 957.568 1280.09 987.968L1294.76 1004.77H1368.09H1441.42L1435.42 999.701C1432.09 996.768 1428.89 994.768 1428.22 995.168C1427.56 995.701 1427.42 995.301 1427.82 994.634C1428.36 993.834 1415.42 980.368 1399.02 964.768C1382.76 949.168 1335.82 902.901 1294.62 861.968L1219.96 787.568H1150.36H1080.76L1078.89 791.834Z" fill="#FF6B00"/>
</svg>
